<svg xmlns="http://www.w3.org/2000/svg" width="55.406" height="55.406" viewBox="0 0 55.406 55.406">
  <circle id="Oval" cx="27.703" cy="27.703" r="27.703" fill="#fff"/>
  <path id="Instagram" d="M16.957,24.151H7.195A7.2,7.2,0,0,1,0,16.957V7.195A7.2,7.2,0,0,1,7.195,0h9.762a7.2,7.2,0,0,1,7.195,7.195v9.762A7.2,7.2,0,0,1,16.957,24.151ZM7.195,2.429A4.771,4.771,0,0,0,2.429,7.195v9.762a4.77,4.77,0,0,0,4.765,4.765h9.762a4.77,4.77,0,0,0,4.765-4.765V7.195a4.77,4.77,0,0,0-4.765-4.765Zm4.881,15.892a6.246,6.246,0,1,1,6.247-6.246A6.253,6.253,0,0,1,12.076,18.322Zm0-10.062a3.817,3.817,0,1,0,3.817,3.817A3.821,3.821,0,0,0,12.076,8.259Zm6.258-.886a1.5,1.5,0,1,1,1.5-1.5A1.5,1.5,0,0,1,18.334,7.373Z" transform="translate(15.627 15.627)" fill="#2cbcaf"/>
</svg>
