<svg xmlns="http://www.w3.org/2000/svg" width="55" height="55" viewBox="0 0 55 55">
  <circle id="Oval" cx="27.5" cy="27.5" r="27.5" fill="#fff"/>
  <path id="Linkedin" d="M15.772,19.889V13.431c0-1.543-.023-3.525-2.14-3.525-2.147,0-2.468,1.682-2.468,3.41v6.573H7.046V6.6h3.941v1.82h.054a4.33,4.33,0,0,1,3.9-2.142c4.171,0,4.946,2.749,4.946,6.328v7.28Zm-11.326,0H.322V6.6H4.447V19.888h0ZM7.039,6.6h.008ZM0,2.4a2.392,2.392,0,1,1,2.392,2.4A2.4,2.4,0,0,1,0,2.4Z" transform="translate(17.353 17.048)" fill="#2cbcaf"/>
</svg>
