<svg xmlns="http://www.w3.org/2000/svg" xmlns:xlink="http://www.w3.org/1999/xlink" viewBox="0 0 1150 312.23"><defs><clipPath id="clip-path"><circle cx="144.16" cy="168.07" r="144.16" style="fill:none"/></clipPath></defs><g id="Layer_2" data-name="Layer 2"><g id="Layer_1-2" data-name="Layer 1"><path d="M459.44,162.74c15.9-7,30.39-23.6,30.39-48.75,0-34.17-25.54-57.13-63.54-57.13H339.9v219h89.27c39.38,0,64.82-23.81,64.82-60.65C494,191.63,479.4,170.28,459.44,162.74ZM418.92,145h-36.2V95.19h36.2C435.4,95.19,446,105,446,120.08,446,135.42,435.65,145,418.92,145Zm-36.2,38.33h37.81c20.5,0,29.68,13.62,29.68,27.12,0,17-11.1,27.13-29.68,27.13H382.72Z" style="fill:#32b5ac"/><path d="M587.31,112c-48.35,0-82.11,34.42-82.11,83.72,0,48.69,34.53,84,82.11,84s82.12-35.34,82.12-84C669.43,146.38,635.66,112,587.31,112Zm0,132.63c-28.76,0-41.86-25.36-41.86-48.91s13.1-48.59,41.86-48.59,41.86,25.19,41.86,48.59C629.17,220,616.23,244.59,587.31,244.59Z" style="fill:#32b5ac"/><path d="M763.6,112c-48.35,0-82.12,34.42-82.12,83.72,0,48.69,34.54,84,82.12,84s82.12-35.34,82.12-84C845.72,146.38,812,112,763.6,112Zm0,132.63c-28.76,0-41.86-25.36-41.86-48.91s13.1-48.59,41.86-48.59,41.86,25.19,41.86,48.59C805.46,220,792.52,244.59,763.6,244.59Z" style="fill:#32b5ac"/><polygon points="1015.15 115.81 966.27 115.81 901.89 186.24 901.89 56.86 862.91 56.86 862.91 275.87 901.89 275.87 901.89 232.64 920.72 213.26 966.74 275.87 1015.81 275.87 948.51 188.77 1015.15 115.81" style="fill:#32b5ac"/><path d="M1087.22,175.88c-16.5-3.6-30.76-6.71-30.76-15.44,0-9.75,10.63-16.55,25.84-16.55,20.49,0,36.08,9.15,43.83,17.7l2.43,2.68,17.07-28.71-1.66-1.47C1132.55,124,1112.58,112,1082.3,112c-37.41,0-63.54,20.33-63.54,49.44,0,36.89,33.51,44.34,60.43,50.33,17.77,4,33.12,7.36,33.12,17.91,0,11.16-10.5,17.83-28.09,17.83-19.85,0-40.33-10.39-50.3-20.66l-2.34-2.41-18.37,28.69,1.55,1.52c16.53,16.19,40.74,25.1,68.18,25.1,40.74,0,67.06-20,67.06-51C1150,189.59,1113.71,181.67,1087.22,175.88Z" style="fill:#32b5ac"/><path d="M635.65,63.52a7.59,7.59,0,0,0,10.74,0L667.5,42.41a7.6,7.6,0,0,0,0-10.75,34.77,34.77,0,1,0,0,49.2,7.6,7.6,0,0,0-10.74-10.75,19.59,19.59,0,1,1-6.46-32L635.65,52.77A7.6,7.6,0,0,0,635.65,63.52Z" style="fill:#fbba3e"/><path d="M826.47,70.11a19.58,19.58,0,1,1-6.45-32L805.36,52.77a7.6,7.6,0,0,0,10.75,10.75l21.11-21.11a7.62,7.62,0,0,0,0-10.75,34.77,34.77,0,1,0,0,49.2,7.6,7.6,0,0,0-10.75-10.75Z" style="fill:#fbba3e"/><path d="M709.42,21.48A28.4,28.4,0,0,0,695,25.43a7.57,7.57,0,0,0-14.22,3.65V83.19a7.6,7.6,0,0,0,15.19,0v-33a13.48,13.48,0,0,1,27,0V83.44a7.6,7.6,0,1,0,15.19,0V50.15A28.7,28.7,0,0,0,709.42,21.48Z" style="fill:#fbba3e"/><path d="M758.54,21.48a7.6,7.6,0,0,0-7.6,7.6V83.44a7.6,7.6,0,0,0,15.2,0V29.08A7.6,7.6,0,0,0,758.54,21.48Z" style="fill:#fbba3e"/><path d="M758.54,15.34A7.31,7.31,0,1,0,751.23,8,7.31,7.31,0,0,0,758.54,15.34Z" style="fill:#fbba3e"/><path d="M593.42,22.15a7.62,7.62,0,0,0-8.28,1.65L560.63,48.32a7.6,7.6,0,0,0,10.74,10.75l11.54-11.55V75.84H550a30.32,30.32,0,1,1,16-56.11,7.6,7.6,0,1,0,8-12.91A45.52,45.52,0,1,0,550,91h40.53a7.6,7.6,0,0,0,7.6-7.6V29.17A7.6,7.6,0,0,0,593.42,22.15Z" style="fill:#fbba3e"/><g style="clip-path:url(#clip-path)"><circle cx="144.16" cy="168.07" r="144.16" style="fill:#32b5ac"/><path d="M245.3,112a18.29,18.29,0,0,0-19.89,4l-58.83,58.86a18.24,18.24,0,0,0,25.79,25.79l27.7-27.72v68H141a72.78,72.78,0,1,1,38.34-134.68,18.23,18.23,0,1,0,19.23-31A109.27,109.27,0,1,0,141,277.33h97.29a18.24,18.24,0,0,0,18.24-18.24V128.83A18.25,18.25,0,0,0,245.3,112Z" style="fill:#fff"/></g></g></g></svg>