<svg xmlns="http://www.w3.org/2000/svg" width="542" height="542" viewBox="0 0 542 542">
  <g id="Group_1" data-name="Group 1" transform="translate(-219 -1343)">
    <circle id="Ellipse_8" data-name="Ellipse 8" cx="271" cy="271" r="271" transform="translate(219 1343)" fill="#a0e1db" opacity="0.685"/>
    <g id="Group_36" data-name="Group 36" transform="translate(40.064 1289.131)">
      <path id="Path_647" data-name="Path 647" d="M710.918,487.243H210.381a9.217,9.217,0,0,1-8.717-6.034v7.6c0,3.071,3.682,7.884,8.741,7.882l500.752-.178c5.06,0,8.955-4.295,9.445-7.7.237-1.656.567-9.164-.058-10.362C720.545,483.321,715.977,487.243,710.918,487.243Z" transform="translate(0.032 68.763)" fill="#191919" fill-rule="evenodd"/>
      <path id="Path_648" data-name="Path 648" d="M710.735,483.942H210.2a9.213,9.213,0,0,1-8.716-6.033v7.6a9.064,9.064,0,0,0,9.2,8.865H711.219a9.064,9.064,0,0,0,9.2-8.865c0-1.671.567-9.165-.056-10.361C720.362,480.022,717.265,482.561,710.735,483.942Z" transform="translate(0 68.187)" fill="#666" fill-rule="evenodd"/>
      <path id="Path_649" data-name="Path 649" d="M201.481,484.227a9.213,9.213,0,0,0,8.716,6.033H710.735c6.883-1.528,9.627-3.92,9.627-8.8l-59.574-42.534c-2.809,5.431-302.208,1.093-404,1.258Z" transform="translate(0 61.869)" fill="#fafafa" fill-rule="evenodd"/>
      <path id="Path_650" data-name="Path 650" d="M592.172,446.936c-6.786-1.682-73.24.533-141.147.526-73.37-.011-148.507-2.12-153.864-.7-3.488,3.177-14.648,14.913-18.683,19.976-.248.728.092.972,1.144,1,27.35.386,171.385.962,260.016.655,39.305-.137,67.688-.128,70.214-.932.6-.1,1.065-.384.9-.925-2.244-2.586-6.087-6.588-9.461-10.5C598.019,452.248,595.234,448.531,592.172,446.936Z" transform="translate(13.419 63.15)" fill="#191919" fill-rule="evenodd"/>
      <path id="Path_651" data-name="Path 651" d="M560.067,461.341a5.661,5.661,0,0,0-1.677-2.553c-.519-.3-3.288-.18-6.216-.167-3.314.015-6.86-.055-8.112-.05-.435.029-.559.195-.426.336a17.669,17.669,0,0,0,1.694,2.648c.824.216,4.768.032,8.48.059C557.011,461.637,560.053,461.675,560.067,461.341Z" transform="translate(59.681 65.295)" fill="#4c4c4c" fill-rule="evenodd"/>
      <path id="Path_652" data-name="Path 652" d="M551.249,458.259c3.157.022,6.155.062,6.171-.269a5.574,5.574,0,0,0-1.654-2.507c-.512-.3-3.244-.174-6.127-.162-3.268.014-6.764-.054-8-.049-.43.028-.553.19-.422.33a17.428,17.428,0,0,0,1.672,2.6C543.7,458.413,547.592,458.233,551.249,458.259Z" transform="translate(59.26 64.72)" fill="#4c4c4c" fill-rule="evenodd"/>
      <path id="Path_653" data-name="Path 653" d="M548.532,454.9c3.189.021,6.218.056,6.229-.248a5.105,5.105,0,0,0-1.668-2.307c-.517-.272-3.276-.161-6.186-.148-3.3.012-6.829-.052-8.073-.047-.435.026-.56.175-.426.3a15.73,15.73,0,0,0,1.688,2.392C540.914,455.038,544.84,454.875,548.532,454.9Z" transform="translate(58.769 64.175)" fill="#4c4c4c" fill-rule="evenodd"/>
      <path id="Path_654" data-name="Path 654" d="M545.934,451.875c3.187.02,6.216.054,6.229-.249a5.1,5.1,0,0,0-1.669-2.305c-.517-.274-3.273-.163-6.186-.15-3.3.013-6.829-.05-8.073-.045-.433.026-.559.175-.426.3a15.856,15.856,0,0,0,1.686,2.391C538.316,452.015,542.241,451.85,545.934,451.875Z" transform="translate(58.316 63.648)" fill="#4c4c4c" fill-rule="evenodd"/>
      <path id="Path_655" data-name="Path 655" d="M543.262,448.969c3.112.02,6.07.055,6.083-.248a5.1,5.1,0,0,0-1.629-2.307c-.505-.272-3.2-.161-6.041-.148-3.224.013-6.669-.052-7.884-.047-.425.026-.546.175-.417.305a15.96,15.96,0,0,0,1.648,2.392C535.821,449.112,539.654,448.946,543.262,448.969Z" transform="translate(57.891 63.141)" fill="#4c4c4c" fill-rule="evenodd"/>
      <path id="Path_656" data-name="Path 656" d="M536.616,448.654c.776-.237.086-1.005-.1-1.332-.265-.476-.247-.739-.853-1.149-1.195-.261-8.965-.038-15.692-.025-7.623.014-15.779-.048-18.653-.043-.963.07-.377,2.666.721,2.7,1.894.187,10.986.123,19.519.147C523.678,448.959,534.807,449.206,536.616,448.654Z" transform="translate(52.224 63.111)" fill="#4c4c4c" fill-rule="evenodd"/>
      <path id="Path_657" data-name="Path 657" d="M536.03,449.107c-.862-.262-6.483-.038-11.346-.027-5.512.014-11.409-.047-13.487-.042-.7.069-.272,2.643.522,2.678,1.371.186,7.944.123,14.113.146,1.53.006,9.472.388,10.9-.14.6-.224.046-1.154-.086-1.476A2.3,2.3,0,0,0,536.03,449.107Z" transform="translate(53.97 63.622)" fill="#4c4c4c" fill-rule="evenodd"/>
      <path id="Path_658" data-name="Path 658" d="M540.544,452.3c-1.355-.3-10.172-.042-17.807-.031-8.652.016-17.906-.055-21.166-.05-1.092.082-.429,3.072.817,3.115,2.149.215,12.467.141,22.151.169,2.4,0,15.028.289,17.08-.346.878-.274.1-1.157-.11-1.535C541.209,453.073,541.23,452.774,540.544,452.3Z" transform="translate(52.256 64.176)" fill="#4c4c4c" fill-rule="evenodd"/>
      <path id="Path_659" data-name="Path 659" d="M525.466,455.57c-1.068-.3-8.02-.042-14.039-.029-6.821.014-14.118-.055-16.687-.049-.864.081-.339,3.071.642,3.112,1.7.216,9.829.141,17.465.167,1.892.007,11.716.453,13.485-.162.744-.26.056-1.34-.106-1.716C525.989,456.341,526.007,456.043,525.466,455.57Z" transform="translate(51.084 64.747)" fill="#4c4c4c" fill-rule="evenodd"/>
      <path id="Path_660" data-name="Path 660" d="M524.139,455.847a17.793,17.793,0,0,0,1.837,2.648c.893.215,5.162.032,9.184.059,3.467.022,6.761.061,6.777-.275a5.666,5.666,0,0,0-1.817-2.553c-.56-.3-3.562-.179-6.732-.166-3.59.014-7.431-.055-8.785-.05C524.13,455.539,524,455.7,524.139,455.847Z" transform="translate(56.279 64.762)" fill="#4c4c4c" fill-rule="evenodd"/>
      <path id="Path_661" data-name="Path 661" d="M536.044,458.969c-3.591.016-7.433-.055-8.785-.048-.473.027-.609.193-.464.335a17.537,17.537,0,0,0,1.837,2.65c.891.215,5.163.031,9.182.058,3.468.022,6.764.062,6.777-.274a5.619,5.619,0,0,0-1.815-2.553C542.215,458.834,539.211,458.957,536.044,458.969Z" transform="translate(56.743 65.357)" fill="#4c4c4c" fill-rule="evenodd"/>
      <path id="Path_662" data-name="Path 662" d="M526.925,461.909a5.638,5.638,0,0,0-1.816-2.553c-.561-.3-3.564-.18-6.732-.166-3.591.014-7.432-.056-8.785-.049-.474.027-.61.194-.463.336a17.617,17.617,0,0,0,1.834,2.647c.893.215,5.163.032,9.183.059C523.615,462.205,526.909,462.245,526.925,461.909Z" transform="translate(53.661 65.395)" fill="#4c4c4c" fill-rule="evenodd"/>
      <path id="Path_663" data-name="Path 663" d="M510.342,462.205A6.428,6.428,0,0,0,509,459.35c-.762-.3-6.32-.05-10.609-.036-4.861.015-8.723-.186-10.555-.18-.641.029-.981.183-.94.423.309.552.879,2.415,1.462,2.691,1.207.216,6.988.033,12.428.059C505.481,462.33,510.323,462.542,510.342,462.205Z" transform="translate(49.791 65.394)" fill="#4c4c4c" fill-rule="evenodd"/>
      <path id="Path_664" data-name="Path 664" d="M486.386,461.934a3.432,3.432,0,0,0-.52-2.458c-.563-.3-4.049-.156-7.221-.143-3.588.014-5.991-.049-7.345-.042-.472.028-.746.228-.776.457.19.526.108,2.032.539,2.309a79.456,79.456,0,0,0,9.144.074C483.676,462.061,486.372,462.27,486.386,461.934Z" transform="translate(46.936 65.42)" fill="#4c4c4c" fill-rule="evenodd"/>
      <path id="Path_665" data-name="Path 665" d="M477.657,458.281a79.174,79.174,0,0,0,9.144.074c3.467-.068,6.162.14,6.179-.2a3.437,3.437,0,0,0-.52-2.458c-.565-.3-4.052-.157-7.219-.143-3.59.016-5.992-.049-7.347-.043-.472.028-.746.23-.775.458C477.307,456.5,477.225,458,477.657,458.281Z" transform="translate(48.086 64.762)" fill="#4c4c4c" fill-rule="evenodd"/>
      <path id="Path_666" data-name="Path 666" d="M484.545,454.98a79.4,79.4,0,0,0,9.146.075c3.463-.069,6.162.14,6.178-.2a3.429,3.429,0,0,0-.524-2.457c-.561-.3-4.048-.157-7.216-.146-3.591.016-5.994-.048-7.346-.04-.473.027-.747.228-.777.457C484.2,453.2,484.113,454.7,484.545,454.98Z" transform="translate(49.287 64.186)" fill="#4c4c4c" fill-rule="evenodd"/>
      <path id="Path_667" data-name="Path 667" d="M495.946,451.883a79.272,79.272,0,0,0,9.144.073c3.467-.067,6.162.141,6.178-.195a3.418,3.418,0,0,0-.521-2.458c-.564-.3-4.048-.157-7.218-.144-3.589.015-5.991-.048-7.346-.041-.472.027-.747.229-.775.457C495.6,450.1,495.514,451.605,495.946,451.883Z" transform="translate(51.277 63.645)" fill="#4c4c4c" fill-rule="evenodd"/>
      <path id="Path_668" data-name="Path 668" d="M493.865,448.785c3.468-.068,6.165.139,6.179-.2a3.418,3.418,0,0,0-.523-2.456c-.561-.3-4.047-.157-7.217-.145-3.591.014-5.992-.048-7.344-.043-.476.029-.749.23-.779.459.19.525.107,2.031.539,2.308A79.475,79.475,0,0,0,493.865,448.785Z" transform="translate(49.318 63.092)" fill="#4c4c4c" fill-rule="evenodd"/>
      <path id="Path_669" data-name="Path 669" d="M495.362,449.3c-.564-.3-4.048-.157-7.218-.143-3.592.015-5.992-.048-7.346-.044-.471.029-.746.23-.775.458.19.526.106,2.032.538,2.309a79.509,79.509,0,0,0,9.147.074c3.466-.068,6.163.139,6.178-.2A3.422,3.422,0,0,0,495.362,449.3Z" transform="translate(48.593 63.645)" fill="#4c4c4c" fill-rule="evenodd"/>
      <path id="Path_670" data-name="Path 670" d="M484.208,448.6a3.432,3.432,0,0,0-.521-2.458c-.564-.3-4.051-.156-7.218-.143-3.591.016-5.993-.049-7.346-.042-.474.029-.747.23-.776.458.189.525.106,2.031.54,2.309a79.256,79.256,0,0,0,9.143.073C481.5,448.726,484.194,448.933,484.208,448.6Z" transform="translate(46.556 63.094)" fill="#4c4c4c" fill-rule="evenodd"/>
      <path id="Path_671" data-name="Path 671" d="M478.262,451.668a3.412,3.412,0,0,0-.523-2.456c-.563-.3-4.047-.159-7.217-.144-3.589.014-5.992-.047-7.346-.043-.472.029-.745.23-.776.459.19.524.108,2.029.539,2.308a79.307,79.307,0,0,0,9.145.073C475.55,451.8,478.248,452,478.262,451.668Z" transform="translate(45.518 63.63)" fill="#4c4c4c" fill-rule="evenodd"/>
      <path id="Path_672" data-name="Path 672" d="M476.115,452.294c-3.59.015-5.992-.048-7.346-.045-.472.029-.747.231-.775.46.189.526.106,2.031.537,2.308a79.307,79.307,0,0,0,9.144.073c3.467-.068,6.165.14,6.18-.195a3.443,3.443,0,0,0-.521-2.458C482.771,452.134,479.283,452.28,476.115,452.294Z" transform="translate(46.494 64.192)" fill="#4c4c4c" fill-rule="evenodd"/>
      <path id="Path_673" data-name="Path 673" d="M475.623,455.664c-.564-.3-4.052-.159-7.219-.146-3.59.015-5.992-.047-7.346-.04-.474.027-.746.228-.775.457.188.526.106,2.029.535,2.309a79.614,79.614,0,0,0,9.147.073c3.467-.068,6.164.14,6.179-.2A3.43,3.43,0,0,0,475.623,455.664Z" transform="translate(45.149 64.755)" fill="#4c4c4c" fill-rule="evenodd"/>
      <path id="Path_674" data-name="Path 674" d="M468.439,459.366c-.561-.3-4.048-.157-7.217-.143-3.589.014-5.992-.049-7.347-.042-.472.027-.746.228-.775.457.19.527.107,2.032.539,2.309a79.188,79.188,0,0,0,9.144.074c3.468-.069,6.162.141,6.179-.2A3.434,3.434,0,0,0,468.439,459.366Z" transform="translate(43.896 65.401)" fill="#4c4c4c" fill-rule="evenodd"/>
      <path id="Path_675" data-name="Path 675" d="M465.775,462.262c1.831-.011.329-2.823-.86-3.11-20.393-.012-47.018.062-60.575-.02-20.788-.124-43.731-.234-47.306.013-.518-.013-.7,1.016-.935,1.751-.364,1.145.223,1.38,3.506,1.347,5.336-.055,16.819-.1,39.934-.046C429.143,462.271,459.569,462.452,465.775,462.262Z" transform="translate(26.957 65.37)" fill="#4c4c4c" fill-rule="evenodd"/>
      <path id="Path_676" data-name="Path 676" d="M444.041,458.352a78.875,78.875,0,0,0,9.147.075c3.465-.069,6.164.14,6.178-.2a3.41,3.41,0,0,0-.523-2.457c-.561-.3-4.048-.159-7.216-.144-3.59.015-5.993-.048-7.346-.042-.473.027-.748.229-.776.458C443.693,456.572,443.611,458.075,444.041,458.352Z" transform="translate(42.222 64.774)" fill="#4c4c4c" fill-rule="evenodd"/>
      <path id="Path_677" data-name="Path 677" d="M451.635,454.945a79.347,79.347,0,0,0,9.148.073c3.465-.067,6.161.141,6.176-.195a3.423,3.423,0,0,0-.521-2.458c-.563-.3-4.049-.157-7.218-.144-3.592.016-5.993-.048-7.344-.042-.476.028-.748.23-.776.458C451.287,453.162,451.2,454.666,451.635,454.945Z" transform="translate(43.547 64.18)" fill="#4c4c4c" fill-rule="evenodd"/>
      <path id="Path_678" data-name="Path 678" d="M455.188,452.013c3.467-.069,6.164.14,6.179-.2a3.429,3.429,0,0,0-.523-2.457c-.561-.3-4.049-.157-7.218-.144-3.59.015-5.992-.048-7.345-.042-.472.027-.747.23-.775.458.189.525.108,2.031.538,2.308A79.367,79.367,0,0,0,455.188,452.013Z" transform="translate(42.571 63.655)" fill="#4c4c4c" fill-rule="evenodd"/>
      <path id="Path_679" data-name="Path 679" d="M453.108,448.821a79.494,79.494,0,0,0,9.145.074c3.467-.069,6.162.14,6.176-.2a3.421,3.421,0,0,0-.521-2.457c-.561-.3-4.048-.159-7.219-.144-3.588.015-5.991-.048-7.345-.042-.472.028-.745.229-.773.457C452.759,447.04,452.676,448.543,453.108,448.821Z" transform="translate(43.804 63.111)" fill="#4c4c4c" fill-rule="evenodd"/>
      <path id="Path_680" data-name="Path 680" d="M452.477,448.7a3.421,3.421,0,0,0-.521-2.457c-.563-.3-4.05-.159-7.219-.144-3.59.015-5.99-.048-7.345-.042-.472.028-.746.229-.775.457.189.527.108,2.031.539,2.309a79.456,79.456,0,0,0,9.144.074C449.765,448.826,452.462,449.035,452.477,448.7Z" transform="translate(41.02 63.111)" fill="#4c4c4c" fill-rule="evenodd"/>
      <path id="Path_681" data-name="Path 681" d="M445.413,451.743a3.423,3.423,0,0,0-.521-2.458c-.563-.3-4.049-.157-7.217-.144-3.593.015-5.994-.048-7.346-.043-.473.029-.748.229-.775.458.189.526.106,2.032.538,2.309a79.3,79.3,0,0,0,9.144.073C442.7,451.87,445.4,452.079,445.413,451.743Z" transform="translate(39.788 63.642)" fill="#4c4c4c" fill-rule="evenodd"/>
      <path id="Path_682" data-name="Path 682" d="M430.5,448.721c3.466-.069,6.162.141,6.178-.2a3.435,3.435,0,0,0-.523-2.459c-.563-.3-4.049-.157-7.219-.143-3.589.015-5.992-.048-7.345-.043-.472.028-.747.23-.775.459.19.525.108,2.029.539,2.307A79.113,79.113,0,0,0,430.5,448.721Z" transform="translate(38.264 63.081)" fill="#4c4c4c" fill-rule="evenodd"/>
      <path id="Path_683" data-name="Path 683" d="M420.06,448.784c.433-.277.349-1.782.538-2.309-.029-.227-.3-.428-.775-.456-1.352-.007-3.756.056-7.346.042-3.169-.014-6.656-.16-7.217.143a3.425,3.425,0,0,0-.524,2.458c.015.336,2.712.127,6.18.2A79.1,79.1,0,0,0,420.06,448.784Z" transform="translate(35.454 63.105)" fill="#4c4c4c" fill-rule="evenodd"/>
      <path id="Path_684" data-name="Path 684" d="M404.2,448.572c.433-.277.351-1.782.538-2.308-.026-.228-.3-.431-.774-.458-1.352-.006-3.755.059-7.346.043-3.169-.014-6.654-.16-7.218.143a3.43,3.43,0,0,0-.521,2.458c.018.336,2.712.127,6.179.195A78.6,78.6,0,0,0,404.2,448.572Z" transform="translate(32.688 63.068)" fill="#4c4c4c" fill-rule="evenodd"/>
      <path id="Path_685" data-name="Path 685" d="M388.153,448.711c.432-.277.349-1.783.538-2.308-.027-.229-.3-.43-.775-.459-1.353,0-3.756.058-7.346.043-3.169-.013-6.657-.159-7.219.145a3.423,3.423,0,0,0-.521,2.456c.015.336,2.712.129,6.179.2A79.491,79.491,0,0,0,388.153,448.711Z" transform="translate(29.888 63.092)" fill="#4c4c4c" fill-rule="evenodd"/>
      <path id="Path_686" data-name="Path 686" d="M372.611,448.747c.431-.276.35-1.782.538-2.308-.028-.228-.3-.429-.775-.458-1.353,0-3.755.058-7.346.044-3.169-.014-6.654-.159-7.218.143a3.428,3.428,0,0,0-.521,2.457c.015.338,2.712.129,6.179.2A78.782,78.782,0,0,0,372.611,448.747Z" transform="translate(27.176 63.099)" fill="#4c4c4c" fill-rule="evenodd"/>
      <path id="Path_687" data-name="Path 687" d="M356.189,448.784c.43-.277.349-1.782.538-2.309-.029-.227-.3-.428-.776-.456-1.353-.007-3.754.056-7.346.042-3.168-.014-6.654-.16-7.218.143-.546.8-1.425,1.521-1.351,2.458.015.336,3.541.128,7.007.2A79.131,79.131,0,0,0,356.189,448.784Z" transform="translate(24.171 63.105)" fill="#4c4c4c" fill-rule="evenodd"/>
      <path id="Path_688" data-name="Path 688" d="M355.138,449.068c-3.17-.014-6.656-.159-7.218.144a3.424,3.424,0,0,0-.523,2.456c.015.336,2.713.128,6.18.2a79.279,79.279,0,0,0,9.144-.073c.431-.278.349-1.784.539-2.308-.031-.229-.3-.43-.776-.459C361.13,449.021,358.729,449.082,355.138,449.068Z" transform="translate(25.451 63.63)" fill="#4c4c4c" fill-rule="evenodd"/>
      <path id="Path_689" data-name="Path 689" d="M358.023,452.294c-3.167-.014-6.656-.16-7.218.143a3.432,3.432,0,0,0-.524,2.458c.016.335,2.712.127,6.181.195a79.3,79.3,0,0,0,9.144-.073c.432-.277.348-1.782.538-2.308-.028-.229-.3-.431-.776-.46C364.016,452.246,361.613,452.309,358.023,452.294Z" transform="translate(25.954 64.192)" fill="#4c4c4c" fill-rule="evenodd"/>
      <path id="Path_690" data-name="Path 690" d="M365.5,455.63c-3.17-.014-6.657-.159-7.218.144a3.428,3.428,0,0,0-.524,2.457c.016.336,2.713.127,6.179.2a78.819,78.819,0,0,0,9.145-.075c.432-.277.349-1.78.538-2.307-.029-.229-.3-.431-.775-.458C371.492,455.582,369.089,455.645,365.5,455.63Z" transform="translate(27.258 64.774)" fill="#4c4c4c" fill-rule="evenodd"/>
      <path id="Path_691" data-name="Path 691" d="M375.53,455.737a3.41,3.41,0,0,0-.521,2.457c.015.336,2.711.127,6.178.2a79.423,79.423,0,0,0,9.147-.075c.43-.277.348-1.782.537-2.309-.028-.227-.3-.429-.775-.457-1.354-.006-3.756.058-7.345.041C379.58,455.58,376.093,455.434,375.53,455.737Z" transform="translate(30.268 64.768)" fill="#4c4c4c" fill-rule="evenodd"/>
      <path id="Path_692" data-name="Path 692" d="M373.357,455.164a79.54,79.54,0,0,0,9.143-.073c.433-.278.351-1.784.54-2.309-.029-.228-.3-.43-.776-.459-1.353-.006-3.756.059-7.346.043-3.169-.013-6.654-.157-7.218.143a3.43,3.43,0,0,0-.52,2.458C367.193,455.3,369.89,455.1,373.357,455.164Z" transform="translate(28.902 64.205)" fill="#4c4c4c" fill-rule="evenodd"/>
      <path id="Path_693" data-name="Path 693" d="M369.942,451.9a79.49,79.49,0,0,0,9.144-.074c.433-.278.351-1.784.539-2.31-.028-.227-.3-.429-.775-.456-1.354-.007-3.756.056-7.347.041-3.166-.013-6.654-.159-7.217.144a3.426,3.426,0,0,0-.521,2.459C363.779,452.041,366.475,451.834,369.942,451.9Z" transform="translate(28.306 63.636)" fill="#4c4c4c" fill-rule="evenodd"/>
      <path id="Path_694" data-name="Path 694" d="M381.241,449.358a3.418,3.418,0,0,0-.523,2.457c.016.337,2.711.128,6.179.2a79.4,79.4,0,0,0,9.145-.075c.432-.277.349-1.783.536-2.308-.026-.228-.3-.431-.774-.458-1.354-.006-3.755.058-7.345.042C385.289,449.2,381.8,449.055,381.241,449.358Z" transform="translate(31.264 63.655)" fill="#4c4c4c" fill-rule="evenodd"/>
      <path id="Path_695" data-name="Path 695" d="M391.754,452.329c-3.168-.012-6.653-.156-7.217.146a3.43,3.43,0,0,0-.521,2.458c.014.336,2.712.127,6.178.195a78.924,78.924,0,0,0,9.147-.074c.431-.276.348-1.783.536-2.307-.026-.23-.3-.431-.775-.459C397.748,452.282,395.345,452.345,391.754,452.329Z" transform="translate(31.839 64.199)" fill="#4c4c4c" fill-rule="evenodd"/>
      <path id="Path_696" data-name="Path 696" d="M399.939,455.519c-3.17-.013-6.656-.156-7.219.146a3.42,3.42,0,0,0-.521,2.457c.014.336,2.711.128,6.178.2a79.6,79.6,0,0,0,9.147-.073c.431-.279.348-1.783.536-2.309-.027-.229-.3-.43-.773-.457C405.931,455.472,403.529,455.534,399.939,455.519Z" transform="translate(33.267 64.755)" fill="#4c4c4c" fill-rule="evenodd"/>
      <path id="Path_697" data-name="Path 697" d="M401.434,452.4a3.435,3.435,0,0,0-.524,2.457c.016.337,2.712.128,6.178.2a79.405,79.405,0,0,0,9.147-.075c.431-.276.348-1.783.538-2.308-.027-.229-.3-.43-.776-.457-1.352-.008-3.755.056-7.345.04C405.482,452.244,402,452.1,401.434,452.4Z" transform="translate(34.787 64.186)" fill="#4c4c4c" fill-rule="evenodd"/>
      <path id="Path_698" data-name="Path 698" d="M396.658,451.737c.015.337,2.712.128,6.178.2a79.606,79.606,0,0,0,9.146-.073c.431-.278.349-1.784.538-2.31-.028-.228-.3-.429-.774-.457-1.355-.006-3.757.058-7.349.042-3.169-.013-6.654-.159-7.216.144A3.417,3.417,0,0,0,396.658,451.737Z" transform="translate(34.045 63.642)" fill="#4c4c4c" fill-rule="evenodd"/>
      <path id="Path_699" data-name="Path 699" d="M417.305,455.519c-3.593.015-5.992-.047-7.346-.04-.474.027-.747.228-.776.457.19.526.107,2.029.539,2.309a79.554,79.554,0,0,0,9.144.073c3.466-.068,6.165.14,6.179-.2a3.42,3.42,0,0,0-.523-2.457C423.96,455.362,420.474,455.506,417.305,455.519Z" transform="translate(36.234 64.755)" fill="#4c4c4c" fill-rule="evenodd"/>
      <path id="Path_700" data-name="Path 700" d="M417.727,454.98a79.418,79.418,0,0,0,9.147.075c3.467-.069,6.164.14,6.179-.2a3.435,3.435,0,0,0-.524-2.457c-.563-.3-4.047-.157-7.218-.146-3.589.016-5.992-.048-7.345-.04-.472.027-.746.228-.775.457C417.378,453.2,417.294,454.7,417.727,454.98Z" transform="translate(37.631 64.186)" fill="#4c4c4c" fill-rule="evenodd"/>
      <path id="Path_701" data-name="Path 701" d="M413.49,451.754a79.17,79.17,0,0,0,9.144.074c3.466-.068,6.161.14,6.179-.2a3.426,3.426,0,0,0-.523-2.457c-.564-.3-4.052-.157-7.218-.146-3.589.015-5.993-.048-7.347-.042-.471.029-.745.231-.774.458C413.141,449.97,413.056,451.477,413.49,451.754Z" transform="translate(36.892 63.623)" fill="#4c4c4c" fill-rule="evenodd"/>
      <path id="Path_702" data-name="Path 702" d="M426.373,455.972c.19.526.107,2.031.539,2.309a79.16,79.16,0,0,0,9.144.074c3.466-.068,6.162.14,6.18-.2a3.444,3.444,0,0,0-.523-2.458c-.566-.3-4.052-.157-7.219-.143-3.59.016-5.993-.049-7.345-.043C426.676,455.542,426.4,455.744,426.373,455.972Z" transform="translate(39.233 64.762)" fill="#4c4c4c" fill-rule="evenodd"/>
      <path id="Path_703" data-name="Path 703" d="M434.319,452.673c.19.525.108,2.032.539,2.308a79.373,79.373,0,0,0,9.144.075c3.468-.069,6.164.14,6.18-.2a3.434,3.434,0,0,0-.523-2.457c-.563-.3-4.048-.157-7.218-.146-3.59.016-5.991-.048-7.346-.04C434.623,452.243,434.35,452.444,434.319,452.673Z" transform="translate(40.62 64.186)" fill="#4c4c4c" fill-rule="evenodd"/>
      <path id="Path_704" data-name="Path 704" d="M354.42,461.836c.433-.277.348-1.783.539-2.309-.028-.228-.3-.429-.776-.458-1.352-.006-3.756.059-7.345.043-3.17-.013-6.656-.159-7.218.143a3.413,3.413,0,0,0-.521,2.458c.014.335,2.712.128,6.176.2A79.512,79.512,0,0,0,354.42,461.836Z" transform="translate(24.003 65.382)" fill="#4c4c4c" fill-rule="evenodd"/>
      <path id="Path_705" data-name="Path 705" d="M340.157,458.194c.016.336,2.713.127,6.179.2a79.378,79.378,0,0,0,9.144-.075c.431-.277.349-1.782.538-2.309-.028-.227-.3-.429-.775-.457-1.354-.006-3.755.058-7.346.041-3.169-.012-6.656-.157-7.219.146A3.415,3.415,0,0,0,340.157,458.194Z" transform="translate(24.188 64.768)" fill="#4c4c4c" fill-rule="evenodd"/>
      <path id="Path_706" data-name="Path 706" d="M339.393,455.112a79.768,79.768,0,0,0,9.144-.074c.432-.278.349-1.785.538-2.309-.028-.229-.3-.43-.774-.458-1.354-.006-3.757.056-7.347.042-3.169-.014-6.654-.159-7.218.144a3.423,3.423,0,0,0-.521,2.458C333.231,455.251,335.926,455.041,339.393,455.112Z" transform="translate(22.977 64.196)" fill="#4c4c4c" fill-rule="evenodd"/>
      <path id="Path_707" data-name="Path 707" d="M337.447,452.048a79.878,79.878,0,0,0,9.144-.073c.432-.28.349-1.784.538-2.31-.029-.228-.3-.43-.776-.458-1.353-.006-3.755.059-7.345.043-3.169-.014-6.656-.159-7.219.144a3.423,3.423,0,0,0-.52,2.456C331.282,452.187,333.98,451.979,337.447,452.048Z" transform="translate(22.637 63.662)" fill="#4c4c4c" fill-rule="evenodd"/>
      <path id="Path_708" data-name="Path 708" d="M330.72,448.779a79,79,0,0,0,9.144-.073,7.152,7.152,0,0,0,1.233-2.352c-.029-.228-.4-.315-.876-.344l-7.939-.027c-3.169-.014-5.721-.137-6.281.166-.547.8-1.534,1.5-1.46,2.436C324.558,448.92,327.253,448.712,330.72,448.779Z" transform="translate(21.468 63.093)" fill="#4c4c4c" fill-rule="evenodd"/>
      <path id="Path_709" data-name="Path 709" d="M323.911,448.852a7.167,7.167,0,0,0,1.233-2.351c-.029-.229-.4-.316-.875-.344l-7.94-.028c-3.168-.014-5.72-.136-6.281.167-.547.8-1.535,1.5-1.46,2.435.016.336,2.712.128,6.179.2A78.892,78.892,0,0,0,323.911,448.852Z" transform="translate(18.684 63.119)" fill="#4c4c4c" fill-rule="evenodd"/>
      <path id="Path_710" data-name="Path 710" d="M322.7,449.251c-3.169-.014-6.657-.159-7.218.144a3.412,3.412,0,0,0-.521,2.456c.014.336,2.712.128,6.179.2a79.854,79.854,0,0,0,9.143-.073c.433-.28.35-1.784.538-2.31-.027-.228-.3-.43-.774-.458C328.694,449.2,326.291,449.266,322.7,449.251Z" transform="translate(19.792 63.662)" fill="#4c4c4c" fill-rule="evenodd"/>
      <path id="Path_711" data-name="Path 711" d="M324.571,452.4c-3.169-.014-6.654-.159-7.218.144a3.42,3.42,0,0,0-.52,2.457c.014.336,2.71.128,6.176.2a78.938,78.938,0,0,0,9.147-.074c.432-.277.349-1.784.537-2.309-.028-.228-.3-.43-.775-.458C330.564,452.352,328.163,452.413,324.571,452.4Z" transform="translate(20.119 64.211)" fill="#4c4c4c" fill-rule="evenodd"/>
      <path id="Path_712" data-name="Path 712" d="M331,455.447c-3.171-.014-6.658-.159-7.219.146a3.415,3.415,0,0,0-.521,2.456c.015.335,2.711.128,6.179.2a79.49,79.49,0,0,0,9.144-.074c.431-.277.348-1.784.538-2.309-.029-.228-.3-.429-.776-.459C336.991,455.4,334.592,455.462,331,455.447Z" transform="translate(21.24 64.742)" fill="#4c4c4c" fill-rule="evenodd"/>
      <path id="Path_713" data-name="Path 713" d="M329.53,459c-3.168-.013-6.656-.159-7.218.144a3.409,3.409,0,0,0-.52,2.457c.013.337,2.711.127,6.176.2a79.675,79.675,0,0,0,9.146-.075c.432-.278.348-1.783.538-2.309-.029-.229-.3-.43-.776-.458C335.522,458.955,333.12,459.017,329.53,459Z" transform="translate(20.984 65.363)" fill="#4c4c4c" fill-rule="evenodd"/>
      <path id="Path_714" data-name="Path 714" d="M319.2,461.717c.432-.242.349-1.559.538-2.02-.028-.2-.3-.376-.776-.4-1.352,0-3.754.05-7.345.038-3.169-.012-6.656-.139-7.218.127-.547.7-1.292,1.369-1.214,2.189.014.294,3.4.073,6.872.133A89.35,89.35,0,0,0,319.2,461.717Z" transform="translate(17.741 65.422)" fill="#4c4c4c" fill-rule="evenodd"/>
      <path id="Path_715" data-name="Path 715" d="M303.228,461.764c.6-.247,1.435-1.62,1.7-2.088-.039-.2-.553-.281-1.206-.307l-10.929-.023c-4.363-.013-7.876-.122-8.649.147-.754.713-2.112,1.332-2.008,2.164.021.3,3.732.113,8.507.173C296.5,461.906,302,461.957,303.228,461.764Z" transform="translate(14.069 65.425)" fill="#4c4c4c" fill-rule="evenodd"/>
      <path id="Path_716" data-name="Path 716" d="M300.342,458.085c11.069.073,21.983.21,24.3.02,1.123-.247.978-1.623,1.47-2.089-.075-.2.166-.366-1.065-.391L304.4,455.6c-8.241-.011-16.48-.363-17.941-.094a14.216,14.216,0,0,0-2.189,2.405C284.313,458.209,291.323,458.024,300.342,458.085Z" transform="translate(14.443 64.743)" fill="#4c4c4c" fill-rule="evenodd"/>
      <path id="Path_717" data-name="Path 717" d="M299.769,454.847c8.207.076,16.3.213,18.015.021.834-.245.725-1.622,1.09-2.088-.054-.2.123-.368-.788-.393l-15.307-.023c-6.107-.013-12.414-.328-13.5-.06a4.566,4.566,0,0,0-1.805,2.37C287.505,454.971,293.086,454.787,299.769,454.847Z" transform="translate(15.002 64.183)" fill="#4c4c4c" fill-rule="evenodd"/>
      <path id="Path_718" data-name="Path 718" d="M300.047,451.883c6.617.074,13.139.211,14.524.022.671-.248.584-1.623.879-2.089-.046-.2.1-.369-.637-.392l-12.338-.026c-4.923-.01-10.008-.326-10.883-.059a4.532,4.532,0,0,0-1.453,2.37C290.164,452.007,294.663,451.823,300.047,451.883Z" transform="translate(15.467 63.666)" fill="#4c4c4c" fill-rule="evenodd"/>
      <path id="Path_719" data-name="Path 719" d="M299.052,449.013a79.135,79.135,0,0,0,9.147-.075,7.123,7.123,0,0,0,1.231-2.35c-.027-.229-.4-.317-.876-.344l-7.938-.028c-3.169-.014-5.72-.137-6.282.166-.546.8-1.534,1.5-1.459,2.436C292.89,449.153,295.588,448.945,299.052,449.013Z" transform="translate(15.943 63.134)" fill="#4c4c4c" fill-rule="evenodd"/>
      <path id="Path_720" data-name="Path 720" d="M384.953,467.148H480.82c1.374,0,1.726,1.361,2.5,2.5l6.242,9.2c.772,1.136-1.124,2.5-2.5,2.5H377.857c-1.373,0-3.335-1.408-2.5-2.5l7.1-9.2C383.295,468.557,383.58,467.148,384.953,467.148Z" transform="translate(30.299 66.792)" fill="#7f7f7f" fill-rule="evenodd"/>
      <path id="Path_721" data-name="Path 721" d="M255.289,213.173H646.671c5.345,0,9.72,3.966,9.72,8.813v245.76c0,4.847-4.375,8.813-9.72,8.813H255.289c-5.346,0-9.72-3.966-9.72-8.813V221.986c0-4.847,4.374-8.813,9.72-8.813Zm370.133-4.229H255.174c-8.5,0-15.448,6.329-15.448,14.063V466.086c0,7.735,6.95,14.061,15.448,14.061H645.6c8.5,0,15.448-6.326,15.448-14.061V223.007c0-7.734-6.95-14.063-15.448-14.063Z" transform="translate(6.672 21.747)" fill="#4c4c4c" fill-rule="evenodd"/>
      <path id="Path_722" data-name="Path 722" d="M643.5,225.416l-.088,238.944-387.678.093.088-238.944,387.678-.093ZM244.7,391.22h0v75.9c0,4.847,4.374,8.813,9.72,8.813H645.8c5.345,0,9.72-3.966,9.72-8.813V221.358c0-4.847-4.375-8.813-9.72-8.813H254.421c-5.346,0-9.72,3.966-9.72,8.813Z" transform="translate(7.54 22.375)" fill="#191919" fill-rule="evenodd"/>
      <rect id="Rectangle_82" data-name="Rectangle 82" width="387.677" height="238.944" transform="translate(263.321 247.838)" fill="#e15f54"/>
      <path id="Path_723" data-name="Path 723" d="M644.306,440.39H253.876a16.569,16.569,0,0,1-6.713-1.4,9.681,9.681,0,0,0,7.428,3.5H645.972a9.985,9.985,0,0,0,8.571-5.644A16.261,16.261,0,0,1,644.306,440.39Z" transform="translate(7.969 61.504)" fill="#7f7f7f" fill-rule="evenodd"/>
      <path id="Path_724" data-name="Path 724" d="M385.245,467.8l94.6.123c1.338,0,1.524,1.112,2.275,2.066l5,8.112c.751.954-.853,1.928-2.188,1.928H378.648c-1.335,0-2.857-1.046-2.041-1.959l6.1-7.989C383.441,469.118,383.909,467.8,385.245,467.8Z" transform="translate(30.511 66.905)" fill="#666" fill-rule="evenodd"/>
      <g id="Group_35" data-name="Group 35" transform="translate(300.64 84.285)">
        <g id="Group_30" data-name="Group 30" transform="translate(153.498)">
          <path id="Path_725" data-name="Path 725" d="M435.308,109.423l-.99,31.1c-.288,4.131-2.961,6.738-7.208,6.6s-6.691-2.92-6.716-7.049l1.493-46.793c.322-4.589,3.722-7.23,8.272-7.085,4.431.141,8.424,2.943,8.457,7.616l-.727,22.821,1.938-.157.721-22.62c-.019-5.728-4.832-9.39-10.327-9.565-5.6-.179-9.885,3.28-10.262,8.9l-1.489,46.848c.016,5.162,3.271,8.817,8.579,8.987s8.85-3.261,9.194-8.421l1-31.125Z" transform="translate(-416.284 -84.285)" fill-rule="evenodd"/>
          <path id="Path_726" data-name="Path 726" d="M418.547,114.584l.3-9.342-1.931-.061-.305,9.56Z" transform="translate(-416.608 -80.64)" fill-rule="evenodd"/>
        </g>
        <path id="Path_727" data-name="Path 727" d="M574.37,483.675l20.361-365.321L307.167,102.327,285.911,483.675Z" transform="translate(-285.911 -81.138)" fill="#ccc" fill-rule="evenodd"/>
        <path id="Path_728" data-name="Path 728" d="M585.734,482.263l-2.042-371.84-284.335,1.56,2.032,370.28Z" transform="translate(-283.565 -79.726)" fill="#dedede" fill-rule="evenodd"/>
        <path id="Path_729" data-name="Path 729" d="M569.164,105.164,291.206,126.8,318.953,483.18H598.6Z" transform="translate(-284.987 -80.643)" fill="#fafafa" fill-rule="evenodd"/>
        <g id="Group_31" data-name="Group 31" transform="translate(32.003 139.898)">
          <rect id="Rectangle_83" data-name="Rectangle 83" width="84.479" height="19.432" transform="translate(0 18.822) rotate(-4.452)" fill="#ededed" stroke="#4c4c4c" stroke-linecap="round" stroke-linejoin="round" stroke-width="0.709"/>
          <rect id="Rectangle_84" data-name="Rectangle 84" width="84.479" height="19.432" transform="translate(1.508 38.196) rotate(-4.452)" fill="#ededed" stroke="#4c4c4c" stroke-linecap="round" stroke-linejoin="round" stroke-width="0.709"/>
          <rect id="Rectangle_85" data-name="Rectangle 85" width="84.479" height="19.432" transform="translate(3.016 57.57) rotate(-4.452)" fill="#ededed" stroke="#4c4c4c" stroke-linecap="round" stroke-linejoin="round" stroke-width="0.709"/>
          <rect id="Rectangle_86" data-name="Rectangle 86" width="84.479" height="19.432" transform="matrix(0.997, -0.078, 0.078, 0.997, 4.525, 76.943)" fill="#ededed" stroke="#4c4c4c" stroke-linecap="round" stroke-linejoin="round" stroke-width="0.709"/>
          <rect id="Rectangle_87" data-name="Rectangle 87" width="84.479" height="19.432" transform="translate(6.033 96.316) rotate(-4.452)" fill="#ededed" stroke="#4c4c4c" stroke-linecap="round" stroke-linejoin="round" stroke-width="0.709"/>
          <rect id="Rectangle_88" data-name="Rectangle 88" width="84.479" height="19.432" transform="translate(7.542 115.69) rotate(-4.452)" fill="#ededed" stroke="#4c4c4c" stroke-linecap="round" stroke-linejoin="round" stroke-width="0.709"/>
          <rect id="Rectangle_89" data-name="Rectangle 89" width="84.479" height="19.432" transform="translate(9.05 135.064) rotate(-4.452)" fill="#ededed" stroke="#4c4c4c" stroke-linecap="round" stroke-linejoin="round" stroke-width="0.709"/>
          <rect id="Rectangle_90" data-name="Rectangle 90" width="84.479" height="19.432" transform="matrix(0.997, -0.078, 0.078, 0.997, 10.558, 154.436)" fill="#ededed" stroke="#4c4c4c" stroke-linecap="round" stroke-linejoin="round" stroke-width="0.709"/>
          <rect id="Rectangle_91" data-name="Rectangle 91" width="92.69" height="19.432" transform="translate(94.783 147.878) rotate(-4.451)" fill="#edeaea" stroke="#4c4c4c" stroke-linecap="round" stroke-linejoin="round" stroke-width="0.709"/>
          <rect id="Rectangle_92" data-name="Rectangle 92" width="92.69" height="19.432" transform="translate(93.274 128.506) rotate(-4.453)" fill="#edeaea" stroke="#4c4c4c" stroke-linecap="round" stroke-linejoin="round" stroke-width="0.709"/>
          <rect id="Rectangle_93" data-name="Rectangle 93" width="92.69" height="19.432" transform="translate(91.766 109.132) rotate(-4.452)" fill="#edeaea" stroke="#4c4c4c" stroke-linecap="round" stroke-linejoin="round" stroke-width="0.709"/>
          <rect id="Rectangle_94" data-name="Rectangle 94" width="92.69" height="19.432" transform="translate(90.257 89.759) rotate(-4.452)" fill="#edeaea" stroke="#4c4c4c" stroke-linecap="round" stroke-linejoin="round" stroke-width="0.709"/>
          <rect id="Rectangle_95" data-name="Rectangle 95" width="92.69" height="19.433" transform="matrix(0.997, -0.078, 0.078, 0.997, 88.749, 70.384)" fill="#edeaea" stroke="#4c4c4c" stroke-linecap="round" stroke-linejoin="round" stroke-width="0.709"/>
          <rect id="Rectangle_96" data-name="Rectangle 96" width="92.69" height="19.431" transform="matrix(0.997, -0.078, 0.078, 0.997, 87.24, 51.012)" fill="#edeaea" stroke="#4c4c4c" stroke-linecap="round" stroke-linejoin="round" stroke-width="0.709"/>
          <rect id="Rectangle_97" data-name="Rectangle 97" width="92.689" height="19.432" transform="translate(85.732 31.639) rotate(-4.452)" fill="#edeaea" stroke="#4c4c4c" stroke-linecap="round" stroke-linejoin="round" stroke-width="0.709"/>
          <rect id="Rectangle_98" data-name="Rectangle 98" width="92.689" height="19.432" transform="translate(84.224 12.265) rotate(-4.452)" fill="#edeaea" stroke="#4c4c4c" stroke-linecap="round" stroke-linejoin="round" stroke-width="0.709"/>
          <rect id="Rectangle_99" data-name="Rectangle 99" width="65.321" height="19.432" transform="translate(176.634 5.07) rotate(-4.452)" fill="#b2b2b2" stroke="#4c4c4c" stroke-linecap="round" stroke-linejoin="round" stroke-width="0.709"/>
          <rect id="Rectangle_100" data-name="Rectangle 100" width="65.321" height="19.432" transform="translate(178.142 24.444) rotate(-4.452)" fill="#b2b2b2" stroke="#4c4c4c" stroke-linecap="round" stroke-linejoin="round" stroke-width="0.709"/>
          <rect id="Rectangle_101" data-name="Rectangle 101" width="65.321" height="19.431" transform="translate(179.651 43.817) rotate(-4.452)" fill="#b2b2b2" stroke="#4c4c4c" stroke-linecap="round" stroke-linejoin="round" stroke-width="0.709"/>
          <rect id="Rectangle_102" data-name="Rectangle 102" width="65.321" height="19.433" transform="translate(181.16 63.19) rotate(-4.452)" fill="#b2b2b2" stroke="#4c4c4c" stroke-linecap="round" stroke-linejoin="round" stroke-width="0.709"/>
          <rect id="Rectangle_103" data-name="Rectangle 103" width="65.321" height="19.432" transform="translate(182.668 82.564) rotate(-4.452)" fill="#b2b2b2" stroke="#4c4c4c" stroke-linecap="round" stroke-linejoin="round" stroke-width="0.709"/>
          <rect id="Rectangle_104" data-name="Rectangle 104" width="65.321" height="19.432" transform="translate(184.176 101.937) rotate(-4.453)" fill="#b2b2b2" stroke="#4c4c4c" stroke-linecap="round" stroke-linejoin="round" stroke-width="0.709"/>
          <rect id="Rectangle_105" data-name="Rectangle 105" width="65.321" height="19.431" transform="translate(185.684 121.311) rotate(-4.452)" fill="#b2b2b2" stroke="#4c4c4c" stroke-linecap="round" stroke-linejoin="round" stroke-width="0.709"/>
          <rect id="Rectangle_106" data-name="Rectangle 106" width="65.32" height="19.433" transform="translate(187.193 140.684) rotate(-4.452)" fill="#b2b2b2" stroke="#4c4c4c" stroke-linecap="round" stroke-linejoin="round" stroke-width="0.709"/>
          <rect id="Rectangle_107" data-name="Rectangle 107" width="65.32" height="18.428" transform="translate(188.702 160.057) rotate(-4.452)" fill="#b2b2b2" stroke="#4c4c4c" stroke-linecap="round" stroke-linejoin="round" stroke-width="0.709"/>
          <rect id="Rectangle_108" data-name="Rectangle 108" width="65.321" height="18.428" transform="translate(190.132 178.43) rotate(-4.452)" fill="#b2b2b2" stroke="#4c4c4c" stroke-linecap="round" stroke-linejoin="round" stroke-width="0.709"/>
        </g>
        <rect id="Rectangle_109" data-name="Rectangle 109" width="58.121" height="3.504" transform="matrix(0.997, -0.078, 0.078, 0.997, 46.659, 346.961)" fill="#f7c7b4"/>
        <rect id="Rectangle_110" data-name="Rectangle 110" width="6.52" height="3.504" transform="matrix(0.997, -0.077, 0.077, 0.997, 106.279, 342.318)" fill="#f7c7b4"/>
        <rect id="Rectangle_111" data-name="Rectangle 111" width="25.967" height="3.503" transform="translate(115.516 341.601) rotate(-4.453)" fill="#f7c7b4"/>
        <rect id="Rectangle_112" data-name="Rectangle 112" width="53.306" height="3.503" transform="translate(143.572 339.416) rotate(-4.452)" fill="#f7c7b4"/>
        <rect id="Rectangle_113" data-name="Rectangle 113" width="67.274" height="3.504" transform="matrix(0.997, -0.078, 0.078, 0.997, 46.114, 339.975)" fill="#f7c7b4"/>
        <rect id="Rectangle_114" data-name="Rectangle 114" width="32.947" height="3.504" transform="matrix(0.997, -0.078, 0.078, 0.997, 117.139, 334.446)" fill="#f7c7b4"/>
        <rect id="Rectangle_115" data-name="Rectangle 115" width="23.101" height="3.503" transform="matrix(0.997, -0.078, 0.078, 0.997, 153.292, 331.632)" fill="#f7c7b4"/>
        <rect id="Rectangle_116" data-name="Rectangle 116" width="61.28" height="3.504" transform="translate(45.571 332.99) rotate(-4.452)" fill="#f7c7b4"/>
        <rect id="Rectangle_117" data-name="Rectangle 117" width="6.31" height="3.504" transform="matrix(0.997, -0.078, 0.078, 0.997, 108.286, 328.108)" fill="#f7c7b4"/>
        <rect id="Rectangle_118" data-name="Rectangle 118" width="25.129" height="3.503" transform="translate(117.225 327.412) rotate(-4.453)" fill="#f7c7b4"/>
        <rect id="Rectangle_119" data-name="Rectangle 119" width="22.14" height="3.504" transform="translate(173.733 323.011) rotate(-4.451)" fill="#f7c7b4"/>
        <rect id="Rectangle_120" data-name="Rectangle 120" width="2.656" height="3.503" transform="translate(198.456 321.087) rotate(-4.433)" fill="#f7c7b4"/>
        <rect id="Rectangle_121" data-name="Rectangle 121" width="24.709" height="3.504" transform="translate(144.879 325.259) rotate(-4.454)" fill="#f7c7b4"/>
        <rect id="Rectangle_122" data-name="Rectangle 122" width="99.741" height="2.831" transform="matrix(0.997, -0.078, 0.078, 0.997, 187.26, 394.166)" fill="#ccc"/>
        <rect id="Rectangle_123" data-name="Rectangle 123" width="39.021" height="2.832" transform="translate(144.323 397.508) rotate(-4.45)" fill="#ccc"/>
        <path id="Path_730" data-name="Path 730" d="M390.285,427.739l25.067-1.951-.22-2.824-61.324,4.775Z" transform="translate(-274.066 -25.202)" fill="#ccc" fill-rule="evenodd"/>
        <rect id="Rectangle_124" data-name="Rectangle 124" width="87.339" height="2.831" transform="matrix(0.997, -0.078, 0.078, 0.997, 185.472, 388.626)" fill="#ccc"/>
        <rect id="Rectangle_125" data-name="Rectangle 125" width="49.51" height="2.832" transform="matrix(0.997, -0.078, 0.078, 0.997, 130.171, 392.931)" fill="#ccc"/>
        <rect id="Rectangle_126" data-name="Rectangle 126" width="72.885" height="2.831" transform="matrix(0.997, -0.078, 0.078, 0.997, 52.538, 398.976)" fill="#ccc"/>
        <rect id="Rectangle_127" data-name="Rectangle 127" width="96.336" height="2.831" transform="matrix(0.997, -0.078, 0.078, 0.997, 182.234, 383.199)" fill="#ccc"/>
        <rect id="Rectangle_128" data-name="Rectangle 128" width="18.881" height="2.831" transform="translate(159.321 384.983) rotate(-4.449)" fill="#ccc"/>
        <rect id="Rectangle_129" data-name="Rectangle 129" width="11.001" height="2.832" transform="translate(52.099 393.331) rotate(-4.455)" fill="#ccc"/>
        <rect id="Rectangle_130" data-name="Rectangle 130" width="85.485" height="2.832" transform="translate(66.79 392.186) rotate(-4.452)" fill="#ccc"/>
        <rect id="Rectangle_131" data-name="Rectangle 131" width="93.5" height="2.831" transform="translate(198.381 376.262) rotate(-4.452)" fill="#ccc"/>
        <rect id="Rectangle_132" data-name="Rectangle 132" width="31.475" height="2.831" transform="matrix(0.997, -0.078, 0.078, 0.997, 162.193, 379.079)" fill="#ccc"/>
        <rect id="Rectangle_133" data-name="Rectangle 133" width="27.159" height="2.832" transform="matrix(0.997, -0.078, 0.078, 0.997, 51.66, 387.685)" fill="#ccc"/>
        <rect id="Rectangle_134" data-name="Rectangle 134" width="11.001" height="2.832" transform="translate(85.936 385.017) rotate(-4.454)" fill="#ccc"/>
        <rect id="Rectangle_135" data-name="Rectangle 135" width="76.94" height="2.831" transform="translate(61.589 381.233) rotate(-4.452)" fill="#ccc"/>
        <rect id="Rectangle_136" data-name="Rectangle 136" width="9.798" height="2.831" transform="translate(140.812 375.065) rotate(-4.45)" fill="#ccc"/>
        <rect id="Rectangle_137" data-name="Rectangle 137" width="39.021" height="2.831" transform="matrix(0.997, -0.078, 0.078, 0.997, 154.694, 373.984)" fill="#ccc"/>
        <rect id="Rectangle_138" data-name="Rectangle 138" width="80.105" height="2.832" transform="matrix(0.997, -0.078, 0.078, 0.997, 196.853, 370.701)" fill="#ccc"/>
        <rect id="Rectangle_139" data-name="Rectangle 139" width="32.645" height="5.263" transform="translate(37.305 169.198) rotate(-4.452)" fill="#b2b2b2"/>
        <rect id="Rectangle_140" data-name="Rectangle 140" width="15.097" height="5.263" transform="matrix(0.997, -0.078, 0.078, 0.997, 69.85, 166.664)" fill="#b2b2b2"/>
        <rect id="Rectangle_141" data-name="Rectangle 141" width="24.127" height="5.263" transform="translate(86.417 165.374) rotate(-4.452)" fill="#b2b2b2"/>
        <rect id="Rectangle_142" data-name="Rectangle 142" width="18.037" height="2.831" transform="translate(100.811 383.859) rotate(-4.453)" fill="#ccc"/>
        <rect id="Rectangle_143" data-name="Rectangle 143" width="26.491" height="2.831" transform="translate(129.47 381.627) rotate(-4.452)" fill="#ccc"/>
        <path id="Path_731" data-name="Path 731" d="M553.478,185.276l-57.389,4.468-63.476,4.942-63.476,4.942L311.748,204.1l.546,7.017,57.389-4.468,63.476-4.942,63.476-4.942,57.389-4.468Z" transform="translate(-281.404 -66.667)" fill="#ccc" fill-rule="evenodd"/>
        <path id="Path_732" data-name="Path 732" d="M554.06,192.745l-57.39,4.468-63.476,4.942L369.719,207.1l-57.389,4.468.545,7.016,57.389-4.468,63.476-4.942,63.475-4.943,57.389-4.468Z" transform="translate(-281.302 -65.364)" fill="#ccc" fill-rule="evenodd"/>
        <path id="Path_733" data-name="Path 733" d="M368.547,192.046l-57.389,4.467.546,7.017,57.389-4.468,63.476-4.942,63.476-4.943,57.388-4.467-.546-7.017L495.5,182.162,432.023,187.1Z" transform="translate(-281.507 -67.99)" fill="#ccc" fill-rule="evenodd"/>
        <path id="Path_734" data-name="Path 734" d="M430.39,176.228l104.162-8.11-3.75-48.152-104.159,8.11-19.146,1.49,3.749,48.153Z" transform="translate(-264.7 -78.061)" fill="#b2b2b2" fill-rule="evenodd"/>
        <g id="Group_32" data-name="Group 32" transform="translate(151.858 59.453)">
          <rect id="Rectangle_144" data-name="Rectangle 144" width="46.242" height="3.43" transform="matrix(0.997, -0.078, 0.078, 0.997, 0, 6.968)" fill="#666"/>
          <rect id="Rectangle_145" data-name="Rectangle 145" width="22.646" height="3.43" transform="matrix(0.997, -0.078, 0.078, 0.997, 48.82, 3.167)" fill="#666"/>
          <rect id="Rectangle_146" data-name="Rectangle 146" width="15.879" height="3.43" transform="translate(73.669 1.232) rotate(-4.451)" fill="#666"/>
          <rect id="Rectangle_147" data-name="Rectangle 147" width="42.121" height="3.43" transform="matrix(0.997, -0.078, 0.078, 0.997, 0.532, 13.807)" fill="#666"/>
          <rect id="Rectangle_148" data-name="Rectangle 148" width="4.337" height="3.43" transform="translate(43.64 10.451) rotate(-4.459)" fill="#666"/>
          <rect id="Rectangle_149" data-name="Rectangle 149" width="17.272" height="3.43" transform="translate(49.785 9.973) rotate(-4.454)" fill="#666"/>
          <rect id="Rectangle_150" data-name="Rectangle 150" width="34.817" height="3.429" transform="matrix(0.997, -0.078, 0.078, 0.997, 69.086, 8.47)" fill="#666"/>
          <rect id="Rectangle_151" data-name="Rectangle 151" width="1.826" height="3.43" transform="translate(105.619 5.625) rotate(-4.447)" fill="#666"/>
          <rect id="Rectangle_152" data-name="Rectangle 152" width="39.95" height="3.43" transform="matrix(0.997, -0.078, 0.078, 0.997, 68.142, 15.253)" fill="#666"/>
          <rect id="Rectangle_153" data-name="Rectangle 153" width="4.482" height="3.429" transform="matrix(0.997, -0.078, 0.078, 0.997, 62.523, 15.691)" fill="#666"/>
          <rect id="Rectangle_154" data-name="Rectangle 154" width="17.848" height="3.43" transform="matrix(0.997, -0.078, 0.078, 0.997, 42.848, 17.222)" fill="#666"/>
          <rect id="Rectangle_155" data-name="Rectangle 155" width="36.641" height="3.43" transform="translate(4.827 20.182) rotate(-4.451)" fill="#666"/>
          <rect id="Rectangle_156" data-name="Rectangle 156" width="1.887" height="3.429" transform="matrix(0.997, -0.077, 0.077, 0.997, 1.065, 20.476)" fill="#666"/>
          <rect id="Rectangle_157" data-name="Rectangle 157" width="39.951" height="3.43" transform="translate(62.401 22.58) rotate(-4.451)" fill="#666"/>
          <rect id="Rectangle_158" data-name="Rectangle 158" width="22.646" height="3.429" transform="translate(37.107 24.549) rotate(-4.455)" fill="#666"/>
          <rect id="Rectangle_159" data-name="Rectangle 159" width="33.338" height="3.43" transform="matrix(0.997, -0.078, 0.078, 0.997, 1.597, 27.314)" fill="#666"/>
        </g>
        <rect id="Rectangle_160" data-name="Rectangle 160" width="30.864" height="5.263" transform="matrix(0.997, -0.078, 0.078, 0.997, 38.765, 187.949)" fill="#b2b2b2"/>
        <rect id="Rectangle_161" data-name="Rectangle 161" width="22.99" height="5.263" transform="matrix(0.997, -0.078, 0.078, 0.997, 72.87, 185.293)" fill="#b2b2b2"/>
        <rect id="Rectangle_162" data-name="Rectangle 162" width="30.828" height="5.263" transform="translate(40.517 208.113) rotate(-4.453)" fill="#b2b2b2"/>
        <rect id="Rectangle_163" data-name="Rectangle 163" width="30.864" height="5.263" transform="translate(41.978 226.863) rotate(-4.452)" fill="#b2b2b2"/>
        <rect id="Rectangle_164" data-name="Rectangle 164" width="15.115" height="5.263" transform="translate(74.563 224.326) rotate(-4.452)" fill="#b2b2b2"/>
        <rect id="Rectangle_165" data-name="Rectangle 165" width="24.156" height="5.263" transform="translate(91.149 223.034) rotate(-4.452)" fill="#b2b2b2"/>
        <rect id="Rectangle_166" data-name="Rectangle 166" width="14.774" height="5.262" transform="matrix(0.997, -0.078, 0.078, 0.997, 43.478, 246.131)" fill="#b2b2b2"/>
        <rect id="Rectangle_167" data-name="Rectangle 167" width="30.002" height="5.263" transform="matrix(0.997, -0.078, 0.078, 0.997, 61.164, 244.754)" fill="#b2b2b2"/>
        <rect id="Rectangle_168" data-name="Rectangle 168" width="3.103" height="5.263" transform="translate(92.589 242.308) rotate(-4.464)" fill="#b2b2b2"/>
        <rect id="Rectangle_169" data-name="Rectangle 169" width="30.864" height="5.263" transform="matrix(0.997, -0.078, 0.078, 0.997, 44.938, 264.882)" fill="#b2b2b2"/>
        <rect id="Rectangle_170" data-name="Rectangle 170" width="16.934" height="5.263" transform="matrix(0.997, -0.078, 0.078, 0.997, 75.709, 262.486)" fill="#b2b2b2"/>
        <rect id="Rectangle_171" data-name="Rectangle 171" width="10.25" height="5.263" transform="matrix(0.997, -0.078, 0.078, 0.997, 94.109, 261.054)" fill="#b2b2b2"/>
        <rect id="Rectangle_172" data-name="Rectangle 172" width="30.827" height="5.263" transform="translate(46.459 284.423) rotate(-4.451)" fill="#b2b2b2"/>
        <rect id="Rectangle_173" data-name="Rectangle 173" width="15.097" height="5.263" transform="translate(79.005 281.889) rotate(-4.448)" fill="#b2b2b2"/>
        <rect id="Rectangle_174" data-name="Rectangle 174" width="30.864" height="5.263" transform="matrix(0.997, -0.078, 0.078, 0.997, 47.919, 303.175)" fill="#b2b2b2"/>
        <rect id="Rectangle_175" data-name="Rectangle 175" width="16.636" height="5.263" transform="translate(80.504 300.637) rotate(-4.452)" fill="#b2b2b2"/>
        <rect id="Rectangle_176" data-name="Rectangle 176" width="24.156" height="5.263" transform="translate(97.09 299.346) rotate(-4.452)" fill="#b2b2b2"/>
        <rect id="Rectangle_177" data-name="Rectangle 177" width="26.16" height="5.263" transform="matrix(0.997, -0.078, 0.078, 0.997, 244.253, 153.465)" fill="#4c4c4c"/>
        <rect id="Rectangle_178" data-name="Rectangle 178" width="21.233" height="5.263" transform="translate(250.66 172.274) rotate(-4.45)" fill="#4c4c4c"/>
        <rect id="Rectangle_179" data-name="Rectangle 179" width="20.504" height="5.262" transform="matrix(0.997, -0.078, 0.078, 0.997, 252.853, 191.046)" fill="#4c4c4c"/>
        <rect id="Rectangle_180" data-name="Rectangle 180" width="13.079" height="5.263" transform="translate(261.748 209.66) rotate(-4.448)" fill="#4c4c4c"/>
        <rect id="Rectangle_181" data-name="Rectangle 181" width="13.079" height="5.263" transform="matrix(0.997, -0.078, 0.078, 0.997, 263.299, 229.58)" fill="#4c4c4c"/>
        <rect id="Rectangle_182" data-name="Rectangle 182" width="11.015" height="5.263" transform="matrix(0.997, -0.078, 0.078, 0.997, 266.852, 248.611)" fill="#4c4c4c"/>
        <rect id="Rectangle_183" data-name="Rectangle 183" width="26.16" height="5.263" transform="matrix(0.997, -0.078, 0.078, 0.997, 253.219, 268.614)" fill="#4c4c4c"/>
        <rect id="Rectangle_184" data-name="Rectangle 184" width="20.869" height="5.263" transform="translate(259.988 287.395) rotate(-4.451)" fill="#4c4c4c"/>
        <rect id="Rectangle_185" data-name="Rectangle 185" width="6.636" height="5.263" transform="translate(275.544 303.844) rotate(-4.451)" fill="#4c4c4c"/>
        <rect id="Rectangle_186" data-name="Rectangle 186" width="37.29" height="5.263" transform="translate(246.477 325.415) rotate(-4.452)" fill="#4c4c4c"/>
        <rect id="Rectangle_187" data-name="Rectangle 187" width="7.292" height="5.262" transform="translate(208.322 290.411) rotate(-4.456)" fill="#b2b2b2"/>
        <rect id="Rectangle_188" data-name="Rectangle 188" width="14.082" height="5.263" transform="matrix(0.997, -0.078, 0.078, 0.997, 200.086, 272.109)" fill="#b2b2b2"/>
        <rect id="Rectangle_189" data-name="Rectangle 189" width="8.984" height="5.262" transform="translate(203.676 252.522) rotate(-4.444)" fill="#b2b2b2"/>
        <rect id="Rectangle_190" data-name="Rectangle 190" width="8.984" height="5.263" transform="translate(202.124 232.604) rotate(-4.452)" fill="#b2b2b2"/>
        <rect id="Rectangle_191" data-name="Rectangle 191" width="7.566" height="5.262" transform="translate(202.044 213.302) rotate(-4.451)" fill="#b2b2b2"/>
        <rect id="Rectangle_192" data-name="Rectangle 192" width="12.84" height="5.263" transform="translate(195.319 194.884) rotate(-4.455)" fill="#b2b2b2"/>
        <rect id="Rectangle_193" data-name="Rectangle 193" width="14.333" height="5.263" transform="translate(192.337 175.808) rotate(-4.452)" fill="#b2b2b2"/>
        <rect id="Rectangle_194" data-name="Rectangle 194" width="4.558" height="5.263" transform="translate(200.716 157.495) rotate(-4.451)" fill="#b2b2b2"/>
        <path id="Path_735" data-name="Path 735" d="M337.437,169.4l-26.414,2.057.273,3.508,26.414-2.056,29.216-2.274,29.216-2.276,26.414-2.056-.274-3.508-26.414,2.057-29.215,2.274Z" transform="translate(-281.53 -70.589)" fill="#f7c7b4" fill-rule="evenodd"/>
        <path id="Path_736" data-name="Path 736" d="M528.866,111.93,412.8,121.446,428.012,293.1l2.387-7.905,2.559,7.5,2.7-7.932,3.5,7.484,2.834-7.943,4.158,7.369,4.035-8.041,2.959,7.467,2.569-7.92,3.225,7.445,3.9-8.03L466.6,290l3.035-7.959,5.023,7.3,3.974-8.037,4.756,7.321,6.7-8.26,5.423,7.265,4.167-8.051,6.621,7.167,5.1-8.128,3.83,7.459L519.659,278l4.357,7.353,2.569-7.921,4.49,7.342,4.567-8.085,5.29,7.277,1.117-7.633,2.24,7.357Z" transform="translate(-263.775 -79.463)" fill-rule="evenodd"/>
        <g id="Group_33" data-name="Group 33" transform="translate(144.87 33.066)">
          <path id="Path_737" data-name="Path 737" d="M522.18,112.44,409.262,121.7l14.5,163.313,2.336-7.527,2.475,7.132,2.644-7.551,3.388,7.115,2.772-7.563,4.03,7,3.939-7.658,2.865,7.1,2.513-7.54,3.124,7.079,3.809-7.648,3.644,7.036,2.966-7.578,4.873,6.936,3.879-7.654,4.615,6.957,6.529-7.871,5.262,6.9,4.068-7.668,6.429,6.808,4.974-7.743,3.713,7.091,4.327-7.69,4.224,6.989,2.514-7.542,4.355,6.978,4.456-7.7,5.134,6.915,1.1-7.266,2.165,7Z" transform="translate(-409.262 -112.44)" fill="#fff" fill-rule="evenodd"/>
          <rect id="Rectangle_195" data-name="Rectangle 195" width="50.875" height="3.236" transform="translate(19.161 68.079) rotate(-4.677)" fill="#666"/>
          <rect id="Rectangle_196" data-name="Rectangle 196" width="36.915" height="3.236" transform="translate(18.408 58.902) rotate(-4.696)" fill="#666"/>
          <rect id="Rectangle_197" data-name="Rectangle 197" width="50.876" height="3.236" transform="translate(17.654 49.72) rotate(-4.696)" fill="#666"/>
          <rect id="Rectangle_198" data-name="Rectangle 198" width="50.875" height="3.236" transform="matrix(0.997, -0.082, 0.082, 0.997, 16.901, 40.527)" fill="#666"/>
          <rect id="Rectangle_199" data-name="Rectangle 199" width="84.748" height="1.356" transform="translate(15.649 25.263) rotate(-4.709)" fill="#666"/>
          <rect id="Rectangle_200" data-name="Rectangle 200" width="12.74" height="3.236" transform="matrix(0.997, -0.082, 0.082, 0.997, 89.422, 43.83)" fill="#666"/>
          <rect id="Rectangle_201" data-name="Rectangle 201" width="12.74" height="3.235" transform="translate(88.669 34.649) rotate(-4.697)" fill="#666"/>
          <rect id="Rectangle_202" data-name="Rectangle 202" width="12.741" height="3.236" transform="translate(90.927 62.2) rotate(-4.696)" fill="#666"/>
          <rect id="Rectangle_203" data-name="Rectangle 203" width="50.875" height="3.236" transform="matrix(0.997, -0.082, 0.082, 0.997, 22.306, 106.435)" fill="#666"/>
          <rect id="Rectangle_204" data-name="Rectangle 204" width="36.915" height="3.236" transform="translate(21.553 97.259) rotate(-4.696)" fill="#666"/>
          <rect id="Rectangle_205" data-name="Rectangle 205" width="50.875" height="3.236" transform="matrix(0.997, -0.082, 0.082, 0.997, 20.8, 88.067)" fill="#666"/>
          <rect id="Rectangle_206" data-name="Rectangle 206" width="50.875" height="3.236" transform="translate(20.047 78.892) rotate(-4.695)" fill="#666"/>
          <rect id="Rectangle_207" data-name="Rectangle 207" width="12.741" height="3.237" transform="translate(92.566 82.189) rotate(-4.696)" fill="#666"/>
          <rect id="Rectangle_208" data-name="Rectangle 208" width="12.74" height="3.236" transform="translate(91.813 73.005) rotate(-4.696)" fill="#666"/>
          <rect id="Rectangle_209" data-name="Rectangle 209" width="12.739" height="3.236" transform="translate(94.073 100.557) rotate(-4.696)" fill="#666"/>
          <rect id="Rectangle_210" data-name="Rectangle 210" width="88.401" height="1.356" transform="translate(23.276 122.435) rotate(-4.659)" fill="#666"/>
          <rect id="Rectangle_211" data-name="Rectangle 211" width="84.747" height="1.356" transform="translate(15.322 22.251) rotate(-4.704)" fill="#666"/>
          <rect id="Rectangle_212" data-name="Rectangle 212" width="22.301" height="5.317" transform="translate(86.737 128.097) rotate(-4.691)" fill="#666"/>
        </g>
        <g id="Group_34" data-name="Group 34" transform="translate(147.859 1.091)">
          <path id="Path_738" data-name="Path 738" d="M430.506,110.352l-.99,31.1c-.288,4.131-2.961,6.739-7.208,6.6s-6.69-2.921-6.714-7.049l1.493-46.793c.321-4.59,3.721-7.23,8.271-7.085,4.431.141,8.424,2.943,8.457,7.615l-.726,22.822,1.935-.156.722-22.622c-.019-5.728-4.832-9.389-10.327-9.564-5.6-.18-9.885,3.279-10.262,8.9l-1.49,46.848c.018,5.161,3.273,8.817,8.582,8.986s8.848-3.26,9.194-8.42l.995-31.127Z" transform="translate(-411.483 -85.214)" fill="#c30" fill-rule="evenodd"/>
          <path id="Path_739" data-name="Path 739" d="M413.745,115.512l.3-9.341-1.931-.061-.3,9.56Z" transform="translate(-411.807 -81.569)" fill="#c30" fill-rule="evenodd"/>
        </g>
      </g>
      <rect id="Rectangle_213" data-name="Rectangle 213" width="79.747" height="19.012" transform="translate(328.476 160.544) rotate(-4.691)" fill="#e15f54"/>
    </g>
  </g>
</svg>
