<svg xmlns="http://www.w3.org/2000/svg" width="55.406" height="55.406" viewBox="0 0 55.406 55.406">
  <circle id="Oval" cx="27.703" cy="27.703" r="27.703" fill="#fff"/>
  <path id="Twitter" d="M22.73,2.186a9.355,9.355,0,0,1-2.678.735A4.677,4.677,0,0,0,22.1.342,9.319,9.319,0,0,1,19.14,1.472a4.666,4.666,0,0,0-8.068,3.19,4.715,4.715,0,0,0,.122,1.063A13.238,13.238,0,0,1,1.583.854,4.667,4.667,0,0,0,3.026,7.078,4.625,4.625,0,0,1,.915,6.495v.059a4.664,4.664,0,0,0,3.74,4.571,4.656,4.656,0,0,1-1.229.164,4.587,4.587,0,0,1-.877-.084,4.671,4.671,0,0,0,4.357,3.239,9.369,9.369,0,0,1-5.793,1.995A9.4,9.4,0,0,1,0,16.373a13.2,13.2,0,0,0,7.149,2.1A13.176,13.176,0,0,0,20.417,5.2c0-.2-.005-.4-.013-.6A9.478,9.478,0,0,0,22.73,2.187Z" transform="translate(16.337 18.469)" fill="#2cbcaf"/>
</svg>
