<svg xmlns="http://www.w3.org/2000/svg" width="55.406" height="55.406" viewBox="0 0 55.406 55.406">
  <circle id="Oval" cx="27.703" cy="27.703" r="27.703" fill="#fff"/>
  <path id="Youtube" d="M12.786,19.889h0c-.067,0-6.681-.048-8.685-.271-.108-.025-.239-.044-.391-.066A3.585,3.585,0,0,1,1.279,18.4a6.8,6.8,0,0,1-1.014-2.8A45.276,45.276,0,0,1,0,11.03V8.9C0,6.63.262,4.317.265,4.294a6.184,6.184,0,0,1,1.014-2.8A3.483,3.483,0,0,1,3.759.323h.005L3.836.316C7.365.049,12.732,0,12.786,0s5.421.049,8.95.316l.121.01a3.255,3.255,0,0,1,2.436,1.165,6.8,6.8,0,0,1,1.014,2.8c0,.023.265,2.334.265,4.611V11.03c0,2.23-.262,4.542-.265,4.565a6.8,6.8,0,0,1-1.014,2.8,3.483,3.483,0,0,1-2.481,1.168h-.005l-.071.006C18.206,19.885,12.84,19.889,12.786,19.889ZM9.7,5.379v9.809L18.077,10.4Z" transform="translate(14.917 17.758)" fill="#2cbcaf"/>
</svg>
